<svg width="24" height="24" viewBox="0 0 24 24" fill="none" xmlns="http://www.w3.org/2000/svg">
<path d="M21.7583 11.1517L12.9283 2.32171C12.5583 1.95171 12.0483 1.74171 11.5183 1.74171L4.3483 1.74171C2.3483 1.74171 2.23604 1.74171 2.3483 3.74171L2.3483 10.9117C2.3483 11.4417 2.5583 11.9517 2.9383 12.3217L11.7683 21.1517C13 22.5 13 22.5 14.5983 21.1517L21.7683 13.9817C23 12.5 23 12.5 21.7583 11.1517ZM13.0607 20.8388L3.46573 11.2439L3.51472 2.80762L11.951 2.75863L21.5459 12.3536L13.0607 20.8388Z" fill="black"/>
<path d="M6.51471 7.84315C7.34314 7.84315 8.01471 7.17158 8.01471 6.34315C8.01471 5.51473 7.34314 4.84315 6.51471 4.84315C5.68629 4.84315 5.01471 5.51473 5.01471 6.34315C5.01471 7.17158 5.68629 7.84315 6.51471 7.84315Z" fill="black"/>
</svg>
